<svg xmlns="http://www.w3.org/2000/svg" xmlns:xlink="http://www.w3.org/1999/xlink" width="162" zoomAndPan="magnify" viewBox="0 0 121.5 31.5" height="42" preserveAspectRatio="xMidYMid meet" version="1.0"><defs><g/></defs><g fill="#d9d9d9" fill-opacity="1"><g transform="translate(7.927409, 21.56085)"><g><path d="M 5.320312 -2.390625 C 3.703125 -2.390625 2.390625 -3.703125 2.390625 -5.320312 L 2.390625 -9.042969 C 2.390625 -10.660156 3.703125 -11.972656 5.320312 -11.972656 L 9.796875 -11.972656 C 10.914062 -11.972656 11.867188 -12.746094 12.117188 -13.828125 L 12.242188 -14.382812 L 4.78125 -14.382812 C 2.140625 -14.382812 0 -12.226562 0 -9.582031 L 0 -4.78125 C 0 -2.140625 2.140625 0 4.78125 0 L 9.796875 0 C 10.894531 0 11.867188 -0.753906 12.117188 -1.832031 L 12.242188 -2.390625 Z M 5.320312 -2.390625 "/></g></g></g><g fill="#d9d9d9" fill-opacity="1"><g transform="translate(21.286216, 21.56085)"><g><path d="M 7.730469 -7.730469 L 7.191406 -7.605469 C 6.113281 -7.355469 5.359375 -6.402344 5.359375 -5.304688 L 5.359375 -3.308594 C 5.359375 -2.785156 4.945312 -2.375 4.421875 -2.375 L 3.308594 -2.375 C 2.785156 -2.375 2.375 -2.785156 2.375 -3.308594 L 2.375 -4.40625 C 2.375 -4.925781 2.785156 -5.359375 3.308594 -5.359375 L 3.34375 -5.359375 C 4.441406 -5.359375 5.394531 -6.113281 5.644531 -7.171875 L 5.769531 -7.730469 L 2.375 -7.730469 L 2.375 -7.765625 C 1.0625 -7.765625 0 -6.707031 0 -5.394531 L 0 -2.375 C 0 -1.0625 1.0625 0 2.375 0 L 5.359375 0 C 6.671875 0 7.730469 -1.0625 7.730469 -2.375 Z M 7.730469 -7.730469 "/></g></g></g><g fill="#d9d9d9" fill-opacity="1"><g transform="translate(30.222043, 21.56085)"><g><path d="M 0 -5.125 L 0 -2.625 C 0 -1.167969 1.1875 0 2.644531 0 L 5.71875 0 L 5.589844 -0.539062 C 5.339844 -1.617188 4.386719 -2.375 3.289062 -2.375 C 2.785156 -2.375 2.390625 -2.785156 2.390625 -3.273438 L 2.390625 -4.476562 C 2.390625 -4.980469 2.785156 -5.375 3.289062 -5.375 L 5.394531 -5.375 L 5.394531 -2.425781 C 5.394531 -1.332031 6.148438 -0.359375 7.226562 -0.125 L 7.765625 0 L 7.765625 -11.9375 C 7.765625 -13.035156 7.011719 -14.007812 5.933594 -14.238281 L 5.394531 -14.382812 L 5.394531 -7.765625 L 2.644531 -7.765625 C 1.1875 -7.765625 0 -6.582031 0 -5.125 Z M 0 -5.125 "/></g></g></g><g fill="#d9d9d9" fill-opacity="1"><g transform="translate(38.90616, 21.56085)"><g><path d="M 2.375 -3.882812 C 2.375 -4.710938 3.054688 -5.375 3.882812 -5.375 L 4.296875 -5.375 L 4.441406 -4.835938 C 4.675781 -3.757812 5.644531 -3.003906 6.742188 -3.003906 L 7.765625 -3.003906 L 7.765625 -5.375 C 7.765625 -6.707031 6.6875 -7.765625 5.375 -7.765625 L 3.882812 -7.765625 C 2.804688 -7.765625 1.832031 -7.335938 1.132812 -6.632812 C 0.429688 -5.914062 0 -4.945312 0 -3.882812 C 0 -1.726562 1.726562 0 3.882812 0 L 5.320312 0 C 6.4375 0 7.390625 -0.753906 7.640625 -1.832031 L 7.765625 -2.375 L 3.882812 -2.375 C 3.054688 -2.375 2.375 -3.054688 2.375 -3.882812 Z M 2.375 -3.882812 "/></g></g></g><g fill="#d9d9d9" fill-opacity="1"><g transform="translate(47.590277, 21.56085)"><g><path d="M 2.375 -7.765625 L 1.832031 -7.640625 C 0.753906 -7.390625 0 -6.4375 0 -5.320312 L 0 0 L 0.539062 -0.125 C 1.617188 -0.359375 2.375 -1.332031 2.375 -2.425781 Z M 5.25 -4.730469 C 6.273438 -5.105469 6.902344 -6.132812 6.796875 -7.191406 L 6.742188 -7.765625 L 4.476562 -6.992188 L 4.296875 -6.921875 C 3.273438 -6.542969 2.644531 -5.539062 2.75 -4.457031 L 2.804688 -3.902344 L 5.070312 -4.675781 L 5.214844 -4.710938 C 5.230469 -4.730469 5.25 -4.730469 5.25 -4.730469 Z M 5.25 -4.730469 "/></g></g></g><g fill="#d9d9d9" fill-opacity="1"><g transform="translate(55.501292, 21.56085)"><g><path d="M 7.785156 -3.378906 C 7.785156 -4.046875 7.226562 -4.601562 6.5625 -4.601562 L 2.769531 -4.601562 C 2.554688 -4.601562 2.390625 -4.765625 2.390625 -4.980469 C 2.390625 -5.195312 2.554688 -5.375 2.769531 -5.375 L 5.359375 -5.375 C 6.453125 -5.375 7.425781 -6.132812 7.675781 -7.210938 L 7.804688 -7.765625 L 1.222656 -7.765625 C 0.539062 -7.765625 0 -7.210938 0 -6.542969 L 0 -4.351562 L 0.0195312 -4.351562 C 0.0195312 -3.667969 0.558594 -3.109375 1.242188 -3.109375 L 5.015625 -3.109375 C 5.230469 -3.109375 5.394531 -2.949219 5.394531 -2.734375 C 5.394531 -2.515625 5.230469 -2.355469 5.015625 -2.355469 L 0 -2.355469 L 0.125 -1.796875 C 0.378906 -0.71875 1.332031 0.0351562 2.445312 0.0351562 L 6.5625 0.0351562 C 7.246094 0.0351562 7.785156 -0.503906 7.785156 -1.1875 Z M 7.785156 -3.378906 "/></g></g></g><g fill="#d9d9d9" fill-opacity="1"><g transform="translate(64.491074, 21.56085)"><g><path d="M 11.902344 -0.109375 L 10.878906 -2.625 L 7.210938 -11.472656 L 7.335938 -11.757812 L 8.378906 -14.257812 L 7.820312 -14.347656 C 7.136719 -14.457031 6.453125 -14.257812 5.953125 -13.828125 C 5.449219 -14.257812 4.765625 -14.457031 4.082031 -14.347656 L 3.523438 -14.257812 L 4.566406 -11.757812 L 4.691406 -11.472656 L 1.023438 -2.605469 L 0 -0.109375 L 0.539062 -0.0195312 C 1.617188 0.144531 2.660156 -0.429688 3.074219 -1.421875 L 3.199219 -1.742188 L 5.953125 -8.394531 L 8.703125 -1.742188 L 8.828125 -1.421875 C 9.242188 -0.429688 10.285156 0.144531 11.363281 -0.0195312 Z M 11.902344 -0.109375 "/></g></g></g><g fill="#d9d9d9" fill-opacity="1"><g transform="translate(77.328467, 21.56085)"><g><path d="M 7.765625 -5.125 C 7.765625 -6.582031 6.582031 -7.765625 5.125 -7.765625 L 2.375 -7.765625 L 2.375 -14.382812 L 1.832031 -14.238281 C 0.753906 -14.007812 0 -13.035156 0 -11.9375 L 0 0 L 0.539062 -0.125 C 1.617188 -0.359375 2.375 -1.332031 2.375 -2.425781 L 2.375 -5.375 L 4.476562 -5.375 C 4.980469 -5.375 5.375 -4.980469 5.375 -4.476562 L 5.375 -3.273438 C 5.375 -2.785156 4.980469 -2.375 4.476562 -2.375 C 3.378906 -2.375 2.425781 -1.617188 2.175781 -0.539062 L 2.050781 0 L 5.125 0 C 6.582031 0 7.765625 -1.167969 7.765625 -2.625 Z M 7.765625 -5.125 "/></g></g></g><g fill="#d9d9d9" fill-opacity="1"><g transform="translate(86.012584, 21.56085)"><g><path d="M 7.730469 -7.730469 L 7.191406 -7.605469 C 6.113281 -7.355469 5.359375 -6.402344 5.359375 -5.304688 L 5.359375 -3.308594 C 5.359375 -2.785156 4.945312 -2.375 4.421875 -2.375 L 3.308594 -2.375 C 2.785156 -2.375 2.375 -2.785156 2.375 -3.308594 L 2.375 -4.40625 C 2.375 -4.925781 2.785156 -5.359375 3.308594 -5.359375 L 3.34375 -5.359375 C 4.441406 -5.359375 5.394531 -6.113281 5.644531 -7.171875 L 5.769531 -7.730469 L 2.375 -7.730469 L 2.375 -7.765625 C 1.0625 -7.765625 0 -6.707031 0 -5.394531 L 0 -2.375 C 0 -1.0625 1.0625 0 2.375 0 L 5.359375 0 C 6.671875 0 7.730469 -1.0625 7.730469 -2.375 Z M 7.730469 -7.730469 "/></g></g></g><g fill="#d9d9d9" fill-opacity="1"><g transform="translate(94.948411, 21.56085)"><g><path d="M 0 -5.125 L 0 -2.625 C 0 -1.167969 1.1875 0 2.644531 0 L 5.71875 0 L 5.589844 -0.539062 C 5.339844 -1.617188 4.386719 -2.375 3.289062 -2.375 C 2.785156 -2.375 2.390625 -2.785156 2.390625 -3.273438 L 2.390625 -4.476562 C 2.390625 -4.980469 2.785156 -5.375 3.289062 -5.375 L 5.394531 -5.375 L 5.394531 -2.425781 C 5.394531 -1.332031 6.148438 -0.359375 7.226562 -0.125 L 7.765625 0 L 7.765625 -11.9375 C 7.765625 -13.035156 7.011719 -14.007812 5.933594 -14.238281 L 5.394531 -14.382812 L 5.394531 -7.765625 L 2.644531 -7.765625 C 1.1875 -7.765625 0 -6.582031 0 -5.125 Z M 0 -5.125 "/></g></g></g><g fill="#d9d9d9" fill-opacity="1"><g transform="translate(103.632528, 21.56085)"><g><path d="M 2.375 -3.882812 C 2.375 -4.710938 3.054688 -5.375 3.882812 -5.375 L 4.296875 -5.375 L 4.441406 -4.835938 C 4.675781 -3.757812 5.644531 -3.003906 6.742188 -3.003906 L 7.765625 -3.003906 L 7.765625 -5.375 C 7.765625 -6.707031 6.6875 -7.765625 5.375 -7.765625 L 3.882812 -7.765625 C 2.804688 -7.765625 1.832031 -7.335938 1.132812 -6.632812 C 0.429688 -5.914062 0 -4.945312 0 -3.882812 C 0 -1.726562 1.726562 0 3.882812 0 L 5.320312 0 C 6.4375 0 7.390625 -0.753906 7.640625 -1.832031 L 7.765625 -2.375 L 3.882812 -2.375 C 3.054688 -2.375 2.375 -3.054688 2.375 -3.882812 Z M 2.375 -3.882812 "/></g></g></g></svg>